<svg id="visual" viewBox="0 0 900 600" width="900" height="600" xmlns="http://www.w3.org/2000/svg" xmlns:xlink="http://www.w3.org/1999/xlink" version="1.1"><rect x="0" y="0" width="900" height="600" fill="#121821"></rect><path d="M0 189L37.5 173.7C75 158.3 150 127.7 225 124C300 120.3 375 143.7 450 153.5C525 163.3 600 159.7 675 148.2C750 136.7 825 117.3 862.5 107.7L900 98L900 0L862.5 0C825 0 750 0 675 0C600 0 525 0 450 0C375 0 300 0 225 0C150 0 75 0 37.5 0L0 0Z" fill="#121821"></path><path d="M0 97L37.5 108.5C75 120 150 143 225 149.7C300 156.3 375 146.7 450 134.8C525 123 600 109 675 111.2C750 113.3 825 131.7 862.5 140.8L900 150L900 0L862.5 0C825 0 750 0 675 0C600 0 525 0 450 0C375 0 300 0 225 0C150 0 75 0 37.5 0L0 0Z" fill="#1f2c3f"></path><path d="M0 87L37.5 85.5C75 84 150 81 225 88.7C300 96.3 375 114.7 450 124.5C525 134.3 600 135.7 675 127C750 118.3 825 99.7 862.5 90.3L900 81L900 0L862.5 0C825 0 750 0 675 0C600 0 525 0 450 0C375 0 300 0 225 0C150 0 75 0 37.5 0L0 0Z" fill="#2c415f"></path><path d="M0 73L37.5 76.3C75 79.7 150 86.3 225 85.7C300 85 375 77 450 70C525 63 600 57 675 60.7C750 64.3 825 77.7 862.5 84.3L900 91L900 0L862.5 0C825 0 750 0 675 0C600 0 525 0 450 0C375 0 300 0 225 0C150 0 75 0 37.5 0L0 0Z" fill="#3a5881"></path><path d="M0 69L37.5 67.2C75 65.3 150 61.7 225 56.2C300 50.7 375 43.3 450 44.3C525 45.3 600 54.7 675 58.5C750 62.3 825 60.7 862.5 59.8L900 59L900 0L862.5 0C825 0 750 0 675 0C600 0 525 0 450 0C375 0 300 0 225 0C150 0 75 0 37.5 0L0 0Z" fill="#4a6fa5"></path></svg>