<svg width="50" height="50" viewBox="0 0 50 50" fill="none" xmlns="http://www.w3.org/2000/svg">
<path d="M24.9996 0C11.1929 0 0.000167847 11.1931 0.000167847 24.9997C0.000167847 38.8061 11.1929 50 24.9996 50C38.8062 50 49.9998 38.8061 49.9998 24.9997C49.9998 11.1931 38.8062 0 24.9996 0ZM25.0001 8.78109L39.7941 18.0062H10.2061L25.0001 8.78109ZM39.9784 32.7375H39.9769C39.9769 34.2172 38.7777 35.4162 37.2982 35.4162H12.702C11.2223 35.4162 10.0233 34.217 10.0233 32.7375V18.5932C10.0233 18.4367 10.0393 18.2845 10.0653 18.135L24.2001 26.9489C24.2174 26.9598 24.2359 26.9671 24.2537 26.9771C24.2724 26.9874 24.2914 26.9974 24.3104 27.0069C24.4102 27.0584 24.5131 27.0999 24.6182 27.1271C24.6291 27.1301 24.6399 27.1314 24.6507 27.1339C24.7661 27.1611 24.8829 27.1781 24.9996 27.1781H25.0004C25.0013 27.1781 25.0021 27.1781 25.0021 27.1781C25.1188 27.1781 25.2356 27.1616 25.3509 27.1339C25.3618 27.1313 25.3726 27.1301 25.3834 27.1271C25.4884 27.0999 25.5909 27.0584 25.6913 27.0069C25.7103 26.9974 25.7293 26.9874 25.7479 26.9771C25.7656 26.9671 25.7843 26.9598 25.8016 26.9489L39.9364 18.135C39.9624 18.2845 39.9784 18.4363 39.9784 18.5932V32.7375Z" fill="black"/>
</svg>
