<svg width="50" height="50" viewBox="0 0 50 50" fill="none" xmlns="http://www.w3.org/2000/svg">
<path d="M25 0C11.1928 0 0 11.1928 0 25C0 38.8072 11.1928 50 25 50C38.8072 50 50 38.8072 50 25C50 11.1928 38.8072 0 25 0ZM15.6327 41.9263H8.6046V19.3136H15.6327V41.9263V41.9263ZM12.1202 16.2225C9.86752 16.2225 8.04399 14.3964 8.04399 12.1468C8.0445 9.89923 9.86752 8.07315 12.1202 8.07315C14.3668 8.07315 16.1928 9.89923 16.1928 12.1468C16.1928 14.3969 14.3662 16.2225 12.1202 16.2225ZM41.9555 41.9263H34.933V30.9294C34.933 28.3069 34.8844 24.934 31.2798 24.934C27.6246 24.934 27.0624 27.7903 27.0624 30.7396V41.9258H20.0404V19.3136H26.7811V22.4036H26.8757C27.8143 20.6256 30.1059 18.7514 33.5253 18.7514C40.6419 18.7514 41.9555 23.4348 41.9555 29.5233V41.9263Z" fill="black"/>
</svg>
